# xmcd
#
# Track frame offsets:
#	150
#	12998
#	25007
#	37531
#	48777
#	63569
#	75689
#	88147
#	101128
#	115658
#	130948
#	144583
#	158992
#	173327
#
# Disc length: 2488 seconds
#
# Revision: 2
# Processed by: cddbd v1.5.2PL0 Copyright (c) Steve Scherf et al.
# Submitted via: EasyCDDAExtractor 9.0.0.1
#
DISCID=a509b60e
DTITLE=Ataíde e Alexandre - Amadurecidos
DYEAR=1900
DGENRE=
TTITLE0=Vai se danar
TTITLE1=Solto na cachaça
TTITLE2=Agora sim
TTITLE3=Libera aí
TTITLE4=Diferente de tudo
TTITLE5=Vai devagar
TTITLE6=Minha estrela
TTITLE7=Irresponsável
TTITLE8=Amor Pirata
TTITLE9=Amadurecidos
TTITLE10=Só de nóis dois
TTITLE11=Havia um jardim
TTITLE12=Agora e antes
TTITLE13=Um novo cara
EXTD=
EXTT0=
EXTT1=
EXTT2=
EXTT3=
EXTT4=
EXTT5=
EXTT6=
EXTT7=
EXTT8=
EXTT9=
EXTT10=
EXTT11=
EXTT12=
EXTT13=
PLAYORDER=
